#!OML:ASF I:\salsa\salsa 7_09\Patient 1\Session 1\dancerfemale.ASF
:FULLY-SPECIFIED
:DEGREES
1424
root 7.3464 15.6425 0.230671 2.5812 -12.1147 2.36837
lowerback 8.98083 -0.0733719 -10.1178
upperback -10.1295 -1.70943 0.984572
thorax -16.3502 0.48918 7.21303
lowerneck 14.0586 -2.81156 -15.3481
upperneck 7.34937 -6.32705 12.1378
head 0.773235 -3.70329 6.42324
rclavicle 5.24512e-014 -2.73018e-014
rhumerus -22.8001 7.27626 -93.7209
rradius 70.6919
rwrist -13.9802
rhand -14.7829 -300.52
rfingers 7.12502
rthumb 11.3741 29.8087
lclavicle 5.24512e-014 -2.73018e-014
lhumerus -41.1466 -16.055 102.421
lradius 121.394
lwrist -9.01333
lhand -42.1463 -354.025
lfingers 7.12502
lthumb -15.0361 395.409
rfemur -23.6698 -10.3375 10.9941
rtibia 59.2729
rfoot -30.097 -14.3653
rtoes 3.20401
lfemur -23.3537 0.623594 -26.0916
ltibia 47.9474
lfoot -27.2179 14.7037
ltoes 2.11224
1425
root 7.59405 15.6358 0.155039 2.20947 -18.844 2.78888
lowerback 8.46774 -0.215801 -9.47364
upperback -10.1642 -1.78603 0.801884
thorax -16.035 0.331705 6.63554
lowerneck 12.4313 -1.18734 -14.7305
upperneck 8.38 -3.92775 12.2533
head 0.971176 -2.45899 6.29059
rclavicle -1.68967e-015 1.61513e-014
rhumerus -22.3275 10.1345 -95.2767
rradius 71.5203
rwrist -13.0482
rhand -13.717 -302.488
rfingers 7.12502
rthumb 12.402 27.9001
lclavicle -1.68967e-015 1.61513e-014
lhumerus -42.9007 -13.1052 101.874
lradius 119.991
lwrist -9.94491
lhand -40.484 -355.127
lfingers 7.12502
lthumb -13.4343 394.42
rfemur -23.4433 -12.2003 11.552
rtibia 61.6162
rfoot -28.0231 -12.4762
rtoes -0.104564
lfemur -23.4614 1.76354 -27.3731
ltibia 48.4128
lfoot -30.2301 17.567
ltoes 4.56559
1426
root 7.82959 15.5728 0.0780638 1.74297 -25.2518 3.30086
lowerback 7.73644 -0.339216 -9.00094
upperback -9.94476 -1.81358 0.728851
thorax -15.2739 0.196283 6.25874
lowerneck 10.7279 0.336316 -13.9779
upperneck 9.07617 -1.6169 12.1246
head 1.11321 -1.24184 6.06336
rclavicle -6.1996e-014 4.96962e-016
rhumerus -21.6955 13.4755 -96.512
rradius 72.4804
rwrist -12.7343
rhand -13.0292 -303.962
rfingers 7.12502
rthumb 13.065 26.4671
lclavicle -6.1996e-014 4.96962e-016
lhumerus -44.3187 -10.388 101.665
lradius 119.006
lwrist -11.1263
lhand -38.8493 -355.638
lfingers 7.12502
lthumb -11.8583 394.007
rfemur -22.9166 -13.1986 12.1637
rtibia 63.7582
rfoot -25.6777 -10.6452
rtoes -6.2273
lfemur -24.2169 4.96068 -28.5183
ltibia 49.327
lfoot -32.2166 18.5993
ltoes 6.32246
1427
root 8.05598 15.4918 0.00586581 1.18739 -31.3534 3.80901
lowerback 6.7252 -0.407083 -8.45875
upperback -9.42671 -1.71197 0.665164
thorax -14.0034 0.0868036 5.81405
lowerneck 8.8485 1.67436 -13.0234
upperneck 9.64596 0.486781 11.73
head 1.30444 -0.114224 5.73142
rclavicle -5.98839e-014 -1.68967e-014
rhumerus -20.8015 17.015 -97.304
rradius 73.7166
rwrist -13.2929
rhand -12.3149 -304.948
rfingers 7.12502
rthumb 13.7535 25.5269
lclavicle -5.98839e-014 -1.68967e-014
lhumerus -44.9967 -7.97583 101.511
lradius 118.095
lwrist -12.1449
lhand -36.6916 -356.386
lfingers 7.12502
lthumb -9.77709 393.367
rfemur -21.9428 -14.2135 12.6647
rtibia 65.3773
rfoot -23.4113 -9.37363
rtoes -10.9837
lfemur -25.2306 8.67248 -29.52
ltibia 50.4014
lfoot -33.7878 19.1331
ltoes 7.68112
1428
root 8.26922 15.4267 -0.066772 0.709529 -37.1045 4.12633
lowerback 5.85097 -0.424671 -7.81166
upperback -8.88012 -1.54852 0.643062
thorax -12.8206 0.0178174 5.35722
lowerneck 7.06925 2.93315 -12.0274
upperneck 10.1636 2.44966 11.2894
head 1.51706 0.939621 5.40007
rclavicle -7.88678e-014 -3.598e-014
rhumerus -19.6852 20.3554 -97.7833
rradius 74.9681
rwrist -13.7373
rhand -11.2647 -305.602
rfingers 7.12502
rthumb 14.7655 24.9443
lclavicle -7.88678e-014 -3.598e-014
lhumerus -45.525 -5.8746 101.552
lradius 117.352
lwrist -13.0852
lhand -34.0924 -357.328
lfingers 7.12502
lthumb -7.26875 392.527
rfemur -20.4565 -15.2438 13.3746
rtibia 66.325
rfoot -21.2435 -8.82863
rtoes -14.0342
lfemur -26.3078 11.9396 -30.2182
ltibia 51.3472
lfoot -35.601 19.7921
ltoes 9.14285
1429
root 8.46769 15.4085 -0.133071 0.322673 -42.5351 4.41028
lowerback 5.00268 -0.404844 -7.19424
upperback -8.3393 -1.34882 0.693755
thorax -11.687 -0.00988356 4.99991
lowerneck 5.45189 4.16438 -11.3624
upperneck 10.5623 4.3124 11.015
head 1.69972 1.9289 5.19502
rclavicle 1.22253e-014 1.47101e-014
rhumerus -18.426 23.6866 -97.8746
rradius 76.1964
rwrist -13.89
rhand -10.3393 -305.856
rfingers 7.12502
rthumb 15.6568 24.7573
lclavicle 1.22253e-014 1.47101e-014
lhumerus -45.7818 -4.19038 101.866
lradius 116.591
lwrist -14.3382
lhand -31.9723 -357.183
lfingers 7.12502
lthumb -5.222 392.732
rfemur -18.5234 -16.3973 13.8061
rtibia 66.3053
rfoot -19.2841 -8.63821
rtoes -16.5103
lfemur -27.1883 14.5667 -30.7808
ltibia 51.7791
lfoot -37.6729 20.6481
ltoes 10.8559
1430
root 8.65112 15.4162 -0.197128 -0.260724 -47.6518 5.13733
lowerback 4.19766 -0.386131 -6.94184
upperback -7.8872 -1.21379 0.719416
thorax -10.6933 -0.0210636 4.83864
lowerneck 4.07283 5.39113 -10.7872
upperneck 10.9117 6.13062 10.6866
head 1.85512 2.88262 5.0006
rclavicle -1.06499e-013 7.95139e-016
rhumerus -17.2223 27.1183 -97.7758
rradius 77.2104
rwrist -13.9104
rhand -10.2467 -306.209
rfingers 7.12502
rthumb 15.746 24.4112
lclavicle -1.06499e-013 7.95139e-016
lhumerus -45.9935 -2.87555 102.376
lradius 115.869
lwrist -15.9428
lhand -30.4451 -356.205
lfingers 7.12502
lthumb -3.74733 393.742
rfemur -16.4591 -18.0845 13.5669
rtibia 65.4869
rfoot -17.2978 -8.38792
rtoes -18.3911
lfemur -27.9051 16.3945 -31.5821
ltibia 51.6362
lfoot -39.7596 21.737
ltoes 12.5818
1431
root 8.81847 15.436 -0.263508 -0.989806 -52.4229 6.09652
lowerback 3.46534 -0.347968 -6.88401
upperback -7.52503 -1.08817 0.720222
thorax -9.8584 -0.00999757 4.76896
lowerneck 2.91797 6.54906 -10.0625
upperneck 11.2553 7.83196 10.2026
head 2.01748 3.77026 4.74617
rclavicle 5.46658e-015 -6.75868e-015
rhumerus -16.2137 30.3388 -97.4095
rradius 78.2819
rwrist -14.3983
rhand -9.79616 -306.06
rfingers 7.12502
rthumb 16.1799 24.5953
lclavicle 5.46658e-015 -6.75868e-015
lhumerus -46.1198 -1.58126 102.844
lradius 115.119
lwrist -17.3406
lhand -28.5265 -355.941
lfingers 7.12502
lthumb -1.89438 394.03
rfemur -14.1293 -19.0923 13.1015
rtibia 63.8223
rfoot -16.5496 -7.79966
rtoes -18.4902
lfemur -28.4603 17.4649 -32.3784
ltibia 51.0597
lfoot -42.1179 23.0196
ltoes 14.3809
1432
root 8.96956 15.478 -0.337504 -1.37211 -56.8249 6.89467
lowerback 2.61976 -0.265289 -6.75909
upperback -7.2808 -0.895473 0.749457
thorax -9.10512 0.037266 4.68896
lowerneck 1.89451 7.5331 -9.26505
upperneck 11.6026 9.27423 9.67979
head 2.21145 4.52365 4.48547
rclavicle -4.56708e-014 -7.95139e-015
rhumerus -15.5371 33.3145 -96.8841
rradius 79.6819
rwrist -15.4871
rhand -9.46043 -306.384
rfingers 7.12502
rthumb 16.5032 24.2975
lclavicle -4.56708e-014 -7.95139e-015
lhumerus -46.0557 -0.661326 103.328
lradius 114.422
lwrist -18.4453
lhand -26.0878 -356.095
lfingers 7.12502
lthumb 0.460911 393.884
rfemur -11.9242 -19.5326 12.9739
rtibia 61.3738
rfoot -16.8706 -6.69203
rtoes -15.575
lfemur -29.1546 17.7868 -32.9259
ltibia 50.2171
lfoot -44.9511 24.5481
ltoes 16.2438
1433
root 9.11553 15.5174 -0.418155 -0.913454 -60.8963 6.8196
lowerback 1.81105 -0.0993137 -6.10835
upperback -7.10692 -0.563113 0.836943
thorax -8.46972 0.127925 4.36967
lowerneck 1.12656 8.3484 -8.43926
upperneck 11.8541 10.4477 9.27011
head 2.37241 5.14033 4.25913
rclavicle -1.44119e-014 -4.77083e-015
rhumerus -15.0935 35.9509 -96.2401
rradius 81.3454
rwrist -16.996
rhand -9.33478 -307.382
rfingers 7.12502
rthumb 16.6242 23.3099
lclavicle -1.44119e-014 -4.77083e-015
lhumerus -45.9318 -0.275214 103.851
lradius 113.791
lwrist -19.2019
lhand -24.5931 -356.173
lfingers 7.12502
lthumb 1.9046 393.799
rfemur -9.79996 -19.2515 13.5368
rtibia 58.0904
rfoot -17.7737 -6.02235
rtoes -14.0775
lfemur -29.9281 17.2978 -32.7998
ltibia 49.3426
lfoot -48.4571 26.0902
ltoes 18.2641
1434
root 9.25298 15.5563 -0.502829 0.0183333 -64.8332 6.27044
lowerback 0.974111 0.315309 -5.2804
upperback -6.9117 0.0926259 0.808536
thorax -7.82721 0.368016 3.81051
lowerneck 0.563638 8.9228 -7.41774
upperneck 11.9718 11.2639 8.92414
head 2.51017 5.58495 4.02286
rclavicle 5.14355e-014 1.63003e-014
rhumerus -14.7468 37.4563 -95.5906
rradius 82.8919
rwrist -17.7284
rhand -9.43484 -308.089
rfingers 7.12502
rthumb 16.5278 22.5952
lclavicle 5.14355e-014 1.63003e-014
lhumerus -45.9506 -0.812513 104.419
lradius 113.282
lwrist -19.646
lhand -24.1047 -356.315
lfingers 7.12502
lthumb 2.37627 393.651
rfemur -7.75342 -18.1017 14.4906
rtibia 54.0248
rfoot -19.1792 -5.56169
rtoes -13.6915
lfemur -30.7265 17.2038 -32.341
ltibia 48.4932
lfoot -51.532 27.2284
ltoes 20.3763
1435
root 9.37526 15.609 -0.594556 1.54733 -68.6656 5.25056
lowerback 0.00965525 0.819608 -4.44865
upperback -6.70569 0.857964 0.821465
thorax -7.09842 0.670272 3.30509
lowerneck -0.295591 9.41732 -6.93054
upperneck 12.2302 11.961 8.93889
head 2.6998 5.96761 4.00272
rclavicle 1.80397e-014 5.56597e-015
rhumerus -14.3218 38.4662 -94.9219
rradius 84.3261
rwrist -18.0751
rhand -9.32557 -308.329
rfingers 7.12502
rthumb 16.633 22.3635
lclavicle 1.80397e-014 5.56597e-015
lhumerus -45.8138 -1.42852 104.863
lradius 112.832
lwrist -20.1103
lhand -21.6224 -356.775
lfingers 7.12502
lthumb 4.7734 393.151
rfemur -6.01388 -16.5121 15.5298
rtibia 49.3783
rfoot -20.7428 -5.15841
rtoes -14.305
lfemur -31.7045 17.4589 -31.6431
ltibia 47.7968
lfoot -54.1035 28.1197
ltoes 22.6994
